<?xml version="1.0" encoding="utf-8"?>
<!-- Generator: Adobe Illustrator 22.0.1, SVG Export Plug-In . SVG Version: 6.00 Build 0)  -->
<svg version="1.1" id="Layer_1" xmlns="http://www.w3.org/2000/svg" xmlns:xlink="http://www.w3.org/1999/xlink" x="0px" y="0px"
	 viewBox="0 0 600 200" style="enable-background:new 0 0 600 200;" xml:space="preserve">
<style type="text/css">
	.st0{fill:#A3B0AD;}
	.st1{fill:#FFFFFF;}
	.st2{font-family:'Athelas-Regular';}
	.st3{font-size:98.7196px;}
</style>
<path class="st0" d="M37.7,116.7V78.6c0-1.3,1.1-2.4,2.4-2.4h46.4c0.8,0,1.5-0.4,1.9-1l0,0c1.1-1.6,0-3.8-1.9-3.8H35.4
	c-0.4,0-0.7,0.1-1.1,0.2c-0.7,0.4-1.9,1.1-1.9,2.3c-0.1,1.7,0,52.6,0,52.6s0,2.7,2.3,2.8s90.4,0,90.4,0s3.9,0.8,4.3-2.9
	c0.4-3.7,0-51.6,0-51.6s0.3-3.6-4.1-4.1h-10.6c-0.7,0-1.3,0.3-1.8,0.8l-0.4,0.5c-1.4,1.5-0.3,4,1.8,4l6.8-0.1c1.3,0,2.4,1.1,2.4,2.4
	l0.2,38.4c0,1.3-1.1,2.4-2.4,2.4H40.1C38.8,119.1,37.7,118,37.7,116.7z"/>
<path class="st0" d="M76.9,101.5l-1.6-1.3c-0.6-0.5-0.7-1.3-0.2-1.9L104,61.4c0.7-0.9,1.6-1.6,2.6-2c3.3-1.3,10.2-3.2,7.7,5.9
	c-0.2,0.9-0.7,1.7-1.4,2.4c-5.1,5.1-29.2,28.9-34.1,33.8C78.2,101.9,77.4,101.9,76.9,101.5z"/>
<path class="st0" d="M57.1,110.3c0,0,6.6,1,7.9-3.2s2.8-5.3,2.8-5.3s2.8-1.3,5-0.4c2.6,1.1,4.4,1.7,4.4,4.4c0,1.3-0.4,2.3-3.1,3.5
	c-3.3,1.4-6,1.7-6,1.7L57.1,110.3z"/>
<path class="st0" d="M70.8,133.4c0,0,0.2,6.6-4.5,7.9v0.3l28.9,0.1v-0.8c0,0-4.5-1.8-4.7-7.4H70.8z"/>
<text transform="matrix(0.9161 0 0 1 154.1909 129.4023)" class="st1 st2 st3">Webdesign</text>
</svg>
